<svg width="24" height="25" viewBox="0 0 24 25" fill="none" xmlns="http://www.w3.org/2000/svg">
<path fill-rule="evenodd" clip-rule="evenodd" d="M0.75 5.55371C0.75 2.27219 0.785137 1.17871 5.125 1.17871C9.46486 1.17871 9.5 2.27219 9.5 5.55371C9.5 8.83523 9.51384 9.92871 5.125 9.92871C0.736159 9.92871 0.75 8.83523 0.75 5.55371Z" stroke="#3A3A55" stroke-opacity="0.8" stroke-width="1.5" stroke-linecap="round" stroke-linejoin="round"/>
<path fill-rule="evenodd" clip-rule="evenodd" d="M14.5 5.55371C14.5 2.27219 14.5351 1.17871 18.875 1.17871C23.2149 1.17871 23.25 2.27219 23.25 5.55371C23.25 8.83523 23.2638 9.92871 18.875 9.92871C14.4862 9.92871 14.5 8.83523 14.5 5.55371Z" stroke="#3A3A55" stroke-opacity="0.8" stroke-width="1.5" stroke-linecap="round" stroke-linejoin="round"/>
<path fill-rule="evenodd" clip-rule="evenodd" d="M0.75 19.3037C0.75 16.0222 0.785137 14.9287 5.125 14.9287C9.46486 14.9287 9.5 16.0222 9.5 19.3037C9.5 22.5852 9.51384 23.6787 5.125 23.6787C0.736159 23.6787 0.75 22.5852 0.75 19.3037Z" stroke="#3A3A55" stroke-opacity="0.8" stroke-width="1.5" stroke-linecap="round" stroke-linejoin="round"/>
<path fill-rule="evenodd" clip-rule="evenodd" d="M14.5 19.3037C14.5 16.0222 14.5351 14.9287 18.875 14.9287C23.2149 14.9287 23.25 16.0222 23.25 19.3037C23.25 22.5852 23.2638 23.6787 18.875 23.6787C14.4862 23.6787 14.5 22.5852 14.5 19.3037Z" stroke="#3A3A55" stroke-opacity="0.8" stroke-width="1.5" stroke-linecap="round" stroke-linejoin="round"/>
</svg>
