<svg width="26" height="27" viewBox="0 0 26 27" fill="none" xmlns="http://www.w3.org/2000/svg">
<path d="M9.44652 24.393V20.5595C9.4465 19.5845 10.2414 18.7922 11.2263 18.7857H14.8339C15.8234 18.7857 16.6256 19.5799 16.6256 20.5595V20.5595V24.4049C16.6254 25.2327 17.2928 25.9093 18.1288 25.9287H20.5339C22.9314 25.9287 24.875 24.0046 24.875 21.631V21.631V10.726C24.8622 9.79224 24.4193 8.9154 23.6725 8.345L15.4472 1.78534C14.0062 0.643169 11.9578 0.643169 10.5168 1.78534L2.32753 8.35691C1.57782 8.92499 1.13423 9.80329 1.125 10.7379V21.631C1.125 24.0046 3.06859 25.9287 5.46614 25.9287H7.8712C8.72794 25.9287 9.42247 25.2411 9.42247 24.393V24.393" stroke="#3A3A55" stroke-opacity="0.8" stroke-width="1.5" stroke-linecap="round" stroke-linejoin="round"/>
</svg>
