<svg width="27" height="25" viewBox="0 0 27 25" fill="none" xmlns="http://www.w3.org/2000/svg">
<path fill-rule="evenodd" clip-rule="evenodd" d="M25.3609 16.8695H20.3009C17.9297 16.8695 15.9997 14.9408 15.9984 12.5708C15.9984 10.1983 17.9284 8.26828 20.3009 8.26703H25.3609C25.8784 8.26703 26.2984 8.68703 26.2984 9.20453C26.2984 9.72203 25.8784 10.142 25.3609 10.142H20.3009C18.9622 10.1433 17.8734 11.232 17.8734 12.5695C17.8734 13.9058 18.9634 14.9945 20.3009 14.9945H25.3609C25.8784 14.9945 26.2984 15.4145 26.2984 15.932C26.2984 16.4495 25.8784 16.8695 25.3609 16.8695Z" fill="#3A3A55"/>
<path fill-rule="evenodd" clip-rule="evenodd" d="M20.8729 13.4295H20.4829C19.9654 13.4295 19.5454 13.0095 19.5454 12.492C19.5454 11.9745 19.9654 11.5545 20.4829 11.5545H20.8729C21.3904 11.5545 21.8104 11.9745 21.8104 12.492C21.8104 13.0095 21.3904 13.4295 20.8729 13.4295Z" fill="#3A3A55"/>
<mask id="mask0_1:549" style="mask-type:alpha" maskUnits="userSpaceOnUse" x="0" y="0" width="27" height="25">
<path fill-rule="evenodd" clip-rule="evenodd" d="M0.5 0.75H26.2982V24.7161H0.5V0.75Z" fill="white"/>
</mask>
<g mask="url(#mask0_1:549)">
<path fill-rule="evenodd" clip-rule="evenodd" d="M7.99701 2.625C4.89701 2.625 2.37451 5.1475 2.37451 8.2475V17.2188C2.37451 20.3188 4.89701 22.8413 7.99701 22.8413H18.802C21.902 22.8413 24.4233 20.3188 24.4233 17.2188V8.2475C24.4233 5.1475 21.902 2.625 18.802 2.625H7.99701ZM18.802 24.7163H7.99701C3.86326 24.7163 0.499512 21.3525 0.499512 17.2188V8.2475C0.499512 4.1125 3.86326 0.75 7.99701 0.75H18.802C22.9358 0.75 26.2983 4.1125 26.2983 8.2475V17.2188C26.2983 21.3525 22.9358 24.7163 18.802 24.7163Z" fill="#3A3A55"/>
</g>
<path fill-rule="evenodd" clip-rule="evenodd" d="M13.8558 8.29761H7.10706C6.58956 8.29761 6.16956 7.87761 6.16956 7.36011C6.16956 6.84261 6.58956 6.42261 7.10706 6.42261H13.8558C14.3733 6.42261 14.7933 6.84261 14.7933 7.36011C14.7933 7.87761 14.3733 8.29761 13.8558 8.29761Z" fill="#3A3A55"/>
</svg>
